<?xml version="1.0" encoding="iso-8859-1"?>
<!-- Generator: Adobe Illustrator 16.0.0, SVG Export Plug-In . SVG Version: 6.00 Build 0)  -->
<!DOCTYPE svg PUBLIC "-//W3C//DTD SVG 1.1//EN" "http://www.w3.org/Graphics/SVG/1.1/DTD/svg11.dtd">
<svg version="1.1" id="Layer_1" xmlns="http://www.w3.org/2000/svg" xmlns:xlink="http://www.w3.org/1999/xlink" x="0px" y="0px"
	 width="126.445px" height="235.083px" viewBox="0 0 126.445 235.083" style="enable-background:new 0 0 126.445 235.083;"
	 xml:space="preserve">
<g>
	<path style="fill:#056C6E;" d="M24.932,107.76c0.781-13.564-1.563-25.232-4.221-34.026C18.4,66.07,15.838,60.553,14.9,57.942
		c0.291,0.831,0.623,2.145,0.938,3.856c0.854,4.565,1.654,11.883,1.783,19.963c-0.07,11.293-1.697,22.952-3.221,27.742
		C9.488,124.988,4.295,136.969,0,145.076v45.801c5.617-7.807,10.057-16.019,13.08-24.425
		C19.545,148.484,23.502,132.66,24.932,107.76z"/>
	<path style="fill:#056C6E;" d="M42.775,74.598c2.883,14.861,3.125,29.388,0.697,43.167c-4.08,23.09-17.76,42.603-21.293,47.142
		c-3.531,4.538-7.205,8.195-7.205,8.195l26.08,17.137l2.469,1.611l1.637,1.081l61.834,40.625l1.281-2.46
		c0.381-0.731,9.623-18.833,14.818-48.256c5.561-31.48,6.941-80.217-18.043-133.557C96.348,30.707,84.934,14.136,71.318,0h-7.033
		c14.768,14.475,27.059,31.787,36.244,51.394c24.418,52.161,23.07,99.799,17.643,130.584c-3.961,22.457-10.479,38.414-13.137,44.332
		l-19.066-12.518l-8.545-10.604c0,0,41.572-71.559,5.119-158.941C75.234,26.732,65.775,12.069,54.861,0H0v3.313
		C21.34,20.383,37.01,45.211,42.775,74.598z"/>
</g>
</svg>
