<?xml version="1.0" encoding="utf-8"?>
<!-- Generator: Adobe Illustrator 16.0.4, SVG Export Plug-In . SVG Version: 6.00 Build 0)  -->
<!DOCTYPE svg PUBLIC "-//W3C//DTD SVG 1.1//EN" "http://www.w3.org/Graphics/SVG/1.1/DTD/svg11.dtd">
<svg version="1.1" id="Layer_1" xmlns="http://www.w3.org/2000/svg" xmlns:xlink="http://www.w3.org/1999/xlink" x="0px" y="0px"
	 width="36.07px" height="33.032px" viewBox="0 0 36.07 33.032" enable-background="new 0 0 36.07 33.032" xml:space="preserve">
<circle fill="#2BB673" cx="2293.231" cy="-208.555" r="1.333"/>
<circle fill="#2BB673" cx="2297.106" cy="-208.555" r="1.333"/>
<circle fill="#2BB673" cx="2300.98" cy="-208.555" r="1.333"/>
<g>
	<path fill="#2BB673" d="M2304.855-209.788c0.68,0,1.233,0.553,1.233,1.233c0,0.68-0.555,1.232-1.233,1.232
		s-1.233-0.553-1.233-1.232C2303.621-209.235,2304.175-209.788,2304.855-209.788 M2304.855-209.888
		c-0.736,0-1.333,0.597-1.333,1.333c0,0.736,0.597,1.333,1.333,1.333s1.333-0.597,1.333-1.333
		C2306.188-209.291,2305.591-209.888,2304.855-209.888L2304.855-209.888z"/>
</g>
<g>
	<path fill="#2BB673" d="M2308.73-209.788c0.68,0,1.233,0.553,1.233,1.233c0,0.68-0.555,1.232-1.233,1.232s-1.233-0.553-1.233-1.232
		C2307.496-209.235,2308.05-209.788,2308.73-209.788 M2308.73-209.888c-0.736,0-1.333,0.597-1.333,1.333
		c0,0.736,0.597,1.333,1.333,1.333s1.333-0.597,1.333-1.333C2310.063-209.291,2309.466-209.888,2308.73-209.888L2308.73-209.888z"/>
</g>
<g>
	<path fill="#056C6E" d="M25.131,19.325c0-1.502-0.689-2.856-1.688-3.826c-0.791,0.672-2.185,1.117-3.733,1.117
		c-1.547,0-2.926-0.445-3.718-1.117c-1,0.969-1.562,2.324-1.562,3.826c0,1.75,0.458,3.301,2.212,4.271v-3.23
		c0-0.591,0.798-1.066,1.39-1.066c0.593,0,1.241,0.476,1.241,1.066v4.182c0,0.063,0.25,0.1,0.604,0.1
		c0.339,0,0.564-0.033,0.564-0.094v-4.188c0-0.591,0.748-1.064,1.342-1.064c0.589,0,1.291,0.474,1.291,1.064v3.26
		C24.244,22.659,25.131,21.09,25.131,19.325z"/>
	<path fill="#056C6E" d="M27.606,18.715c0.036,0.197,0.07,0.396,0.099,0.588c-0.028-0.191-0.062-0.391-0.101-0.588
		c-0.185-0.613-0.389-1.055-0.465-1.264c0.024,0.066,0.05,0.172,0.075,0.309c0.069,0.368,0.132,0.963,0.141,1.615
		c-0.007,0.898-0.136,1.821-0.256,2.203c-0.64,2.016-1.337,3.291-1.689,3.693c-2.997,4.066-8.714,4.833-12.925,1.838
		c-0.985-0.703-1.8-1.533-2.418-2.469c-1.034-1.566-1.314-3.454-1.359-3.912c-0.044-0.457-0.032-0.872-0.032-0.872l-2.459,0.44
		c0.161,0.961,0.161,0.961,0,0.002L5.984,20.34l-0.154,0.027L0,21.415l0.062,0.213c0.018,0.064,0.479,1.625,1.797,3.621
		c1.411,2.135,4.016,5.041,8.405,6.764c3.646,1.431,7.562,1.355,11.021-0.215c2.752-1.248,4.885-3.364,5.71-5.658
		c0.518-1.438,0.834-2.705,0.948-4.698C28.007,20.353,27.819,19.42,27.606,18.715z M21.12,31.432
		c-3.36,1.525-7.165,1.6-10.709,0.208c-4.292-1.685-6.838-4.524-8.219-6.613c-1.007-1.524-1.508-2.81-1.68-3.3l1.797-0.323
		l1.081,0.146c0,0,1.526,6.447,8.458,9.516c5.941,2.629,11.296,0.064,14.002-3.536C24.82,29.113,23.146,30.516,21.12,31.432z"/>
	<path fill="#056C6E" d="M29.236,28.043l0.197,0.129l0.131,0.086l4.949,3.252l0.104-0.196c0.03-0.06,0.771-1.509,1.187-3.864
		c0.445-2.52,0.556-6.421-1.445-10.691c-1.662-3.547-4.555-6.187-8.146-7.428c-2.855-0.987-5.859-0.92-8.037,0.177
		c-1.364,0.687-2.467,1.389-3.921,2.756c-0.793,0.746-1.298,1.552-1.629,2.21c0.107-0.167,0.221-0.336,0.332-0.493
		c0.087-0.125,0.088-0.125,0.001-0.001c-0.111,0.157-0.225,0.326-0.332,0.493c-0.288,0.573-0.443,1.033-0.533,1.238
		c0.029-0.064,0.082-0.159,0.158-0.276c0.205-0.318,0.576-0.801,1.026-1.287c0.62-0.64,1.337-1.213,1.684-1.405
		c1.851-1.022,3.233-1.467,3.768-1.517c4.974-0.888,9.648,2.49,10.644,7.56c0.23,1.189,0.25,2.352,0.056,3.455
		c-0.327,1.848-1.422,3.411-1.705,3.774c-0.283,0.362-0.576,0.655-0.576,0.655L29.236,28.043 M35.408,27.379
		c-0.317,1.8-0.839,3.076-1.053,3.551l-1.525-1.002l-0.686-0.85c0,0,3.329-5.729,0.41-12.724c-2.502-5.996-8.152-7.819-12.594-7.069
		c1.839-0.439,4.019-0.306,6.12,0.423c3.487,1.204,6.299,3.77,7.915,7.218C35.951,21.102,35.844,24.917,35.408,27.379z"/>
	<path fill="#056C6E" d="M15.13,24.936c0.175,0.081,0.361,0.16,0.546,0.236c0.616,0.177,1.097,0.244,1.314,0.295
		c-0.068-0.016-0.173-0.051-0.301-0.104c-0.362-0.148-0.928-0.438-1.509-0.808c-0.722-0.483-1.391-1.062-1.637-1.36
		c-1.346-1.631-2.038-2.908-2.187-3.424c-1.789-4.724,0.668-9.941,5.47-11.854c1.127-0.445,2.265-0.679,3.386-0.691
		c1.877-0.02,3.614,0.769,4.022,0.98c0.409,0.211,0.751,0.445,0.751,0.445l0.965-2.304l0.091-0.218l0.061-0.145l2.284-5.464
		l-0.213-0.065c-0.063-0.02-1.625-0.479-4.016-0.454c-2.561,0.027-6.415,0.638-10.242,3.391C10.735,5.68,8.675,9.01,8.117,12.768
		c-0.445,2.989,0.175,5.928,1.654,7.867c0.928,1.214,1.82,2.168,3.433,3.345c0.879,0.642,1.764,0.989,2.472,1.194
		C15.491,25.097,15.305,25.018,15.13,24.936 M27.142,2.465l-0.708,0.829c0,0-6.244-2.215-12.582,1.943
		C8.42,8.801,7.669,14.691,9.226,18.918c-0.772-1.727-1.042-3.895-0.713-6.092c0.541-3.651,2.544-6.886,5.635-9.11
		c3.744-2.69,7.513-3.288,10.015-3.315c1.826-0.02,3.178,0.258,3.684,0.379L27.142,2.465z"/>
</g>
</svg>
