<?xml version="1.0" encoding="utf-8"?>
<!-- Generator: Adobe Illustrator 16.0.4, SVG Export Plug-In . SVG Version: 6.00 Build 0)  -->
<!DOCTYPE svg PUBLIC "-//W3C//DTD SVG 1.1//EN" "http://www.w3.org/Graphics/SVG/1.1/DTD/svg11.dtd">
<svg version="1.1" xmlns="http://www.w3.org/2000/svg" xmlns:xlink="http://www.w3.org/1999/xlink" x="0px" y="0px"
	 width="58.875px" height="57.234px" viewBox="0 0 58.875 57.234" enable-background="new 0 0 58.875 57.234" xml:space="preserve">
<g id="圖層_2" display="none">
	<rect x="-3.688" y="-1.383" display="inline" fill="#B7B8B8" width="66.125" height="65.5"/>
</g>
<g id="Layer_1">
	<g>
		<g>
			<g>
				<path fill="#FFFFFF" d="M42.066,30.001c0.053,0.288,0.104,0.582,0.145,0.86c0.104,0.708,0.877,7.058-4.113,11.9
					c-2.534,2.461-5.105,3.921-7.863,4.465c-0.848,0.167-1.723,0.251-2.627,0.251c-2.355,0-4.918-0.57-7.759-1.721
					c-7.598-3.074-9.421-11.405-9.744-13.332L1.548,33.96l0.09,0.313c0.025,0.096,0.701,2.387,2.638,5.312
					c2.071,3.134,5.894,7.4,12.337,9.929c5.352,2.101,11.098,1.988,16.176-0.315c4.039-1.831,7.17-4.938,8.381-8.305
					c0.762-2.109,1.227-3.972,1.395-6.896C42.654,32.405,42.379,31.035,42.066,30.001z M32.547,48.665
					c-4.934,2.239-10.518,2.347-15.719,0.306c-6.3-2.473-10.036-6.643-12.062-9.706c-1.479-2.236-2.214-4.122-2.466-4.844
					l2.638-0.475l1.586,0.216c0,0,2.241,9.462,12.414,13.965c8.72,3.857,16.58,0.096,20.553-5.19
					C37.979,45.26,35.52,47.32,32.547,48.665z"/>
			</g>
		</g>
		<path fill="#D1D3D4" d="M20.063,45.222c7.256,2.938,12.644,2.194,17.63-2.873c5.321-5.41,4.383-11.146,3.916-12.952
			c0.246,1.619-0.031,4.015-0.283,4.809c-0.938,2.957-1.965,4.827-2.48,5.421c-4.398,5.967-12.789,7.092-18.969,2.695
			c-1.447-1.032-2.642-2.252-3.549-3.623c-1.519-2.299-1.931-5.068-1.996-5.74s-0.048-1.281-0.048-1.281l-3.609,0.646
			C10.976,34.139,12.723,42.25,20.063,45.222z"/>
		<g>
			<g>
				<path fill="#FFFFFF" d="M20.079,23.775c0.16-0.246,0.325-0.493,0.487-0.726c0.411-0.586,4.22-5.724,11.177-5.805
					c3.531-0.041,6.401,0.67,8.776,2.172c0.729,0.462,1.423,1.003,2.078,1.625c1.71,1.621,3.178,3.798,4.446,6.587
					c3.396,7.46-1.016,14.758-2.104,16.378l7.267,4.772l0.149-0.289c0.045-0.087,1.131-2.214,1.741-5.671
					c0.652-3.698,0.814-9.425-2.12-15.691c-2.438-5.207-6.687-9.08-11.956-10.9c-4.189-1.45-8.602-1.353-11.796,0.259
					c-2.003,1.01-3.621,2.039-5.756,4.046C21.306,21.626,20.563,22.809,20.079,23.775z M39.828,16.782
					c5.121,1.769,9.246,5.533,11.617,10.596c2.869,6.128,2.711,11.727,2.073,15.343c-0.466,2.641-1.231,4.515-1.544,5.211
					l-2.24-1.472l-1.004-1.247c0,0,4.885-8.406,0.602-18.675c-3.672-8.802-11.967-11.479-18.483-10.375
					C33.545,15.515,36.746,15.711,39.828,16.782z"/>
			</g>
		</g>
		<path fill="#D1D3D4" d="M46.518,27.87c-3.242-7.125-7.664-10.293-14.77-10.047c-7.584,0.265-10.852,5.072-11.753,6.703
			c0.935-1.345,2.785-2.892,3.514-3.293c2.716-1.5,4.747-2.151,5.53-2.228c7.297-1.303,14.161,3.654,15.62,11.097
			c0.34,1.746,0.367,3.451,0.082,5.07c-0.479,2.714-2.087,5.008-2.502,5.54c-0.414,0.532-0.847,0.963-0.847,0.963l3.063,2.015
			C45.486,42.165,49.799,35.078,46.518,27.87z"/>
		<g>
			<g>
				<path fill="#FFFFFF" d="M24.557,39.479c-0.271-0.11-0.545-0.229-0.802-0.347c-0.651-0.296-6.403-3.093-7.766-9.915
					c-0.691-3.463-0.521-6.415,0.518-9.025c0.319-0.804,0.723-1.583,1.214-2.343c1.278-1.979,3.146-3.822,5.654-5.585
					c6.706-4.714,14.691-1.724,16.484-0.95l3.354-8.021l-0.313-0.097c-0.094-0.027-2.385-0.703-5.896-0.666
					c-3.756,0.039-9.415,0.937-15.032,4.978c-4.667,3.355-7.691,8.244-8.511,13.762c-0.652,4.386,0.258,8.7,2.43,11.546
					c1.36,1.782,2.671,3.184,5.037,4.911C22.217,38.668,23.518,39.18,24.557,39.479z M14.043,21.356
					C14.836,16,17.776,11.251,22.314,7.985C27.809,4.037,33.34,3.16,37.012,3.121c2.682-0.028,4.664,0.378,5.406,0.557l-1.033,2.474
					l-1.039,1.218c0,0-9.164-3.252-18.467,2.852c-7.973,5.23-9.074,13.878-6.789,20.081C13.957,27.765,13.56,24.583,14.043,21.356z"
					/>
			</g>
		</g>
		<g>
			<path fill="#D1D3D4" d="M42.066,30.001c-0.271-0.899-0.572-1.548-0.684-1.854c0.035,0.099,0.074,0.253,0.111,0.453
				c0.119,0.647,0.233,1.77,0.209,2.948c0.135,1.782,0.094,6.817-4.012,10.803c-5.104,4.95-10.374,5.812-17.63,2.873
				c-7.341-2.974-9.088-11.083-9.391-12.898l-0.342,0.063l-0.227,0.039c0.323,1.927,2.146,10.258,9.742,13.333
				c2.841,1.149,5.403,1.721,7.759,1.721c0.904,0,1.779-0.084,2.627-0.251c2.757-0.544,5.329-2.004,7.862-4.464
				c4.99-4.846,4.221-11.193,4.115-11.901C42.17,30.583,42.119,30.289,42.066,30.001z"/>
			<path fill="#D1D3D4" d="M47.043,27.629c-1.271-2.789-2.736-4.966-4.446-6.587c-0.655-0.622-1.349-1.163-2.078-1.625
				c-2.375-1.502-5.245-2.213-8.776-2.172c-6.957,0.081-10.766,5.219-11.177,5.805c-0.162,0.23-0.327,0.479-0.487,0.726
				c-0.422,0.841-0.649,1.518-0.782,1.815c0.043-0.095,0.122-0.233,0.233-0.404c0.357-0.556,1.045-1.446,1.877-2.284
				c1.129-1.385,4.623-5.012,10.341-5.078c7.108-0.083,11.526,2.922,14.771,10.047c3.28,7.208-1.031,14.295-2.062,15.82l0.291,0.188
				l0.19,0.127C46.029,42.386,50.439,35.089,47.043,27.629z"/>
			<path fill="#D1D3D4" d="M23.754,39.133c0.257,0.117,0.53,0.234,0.802,0.347c0.904,0.26,1.609,0.358,1.929,0.435
				c-0.101-0.023-0.253-0.077-0.44-0.153c-0.61-0.25-1.614-0.763-2.591-1.425c-1.57-0.854-5.777-3.62-6.897-9.229
				c-1.393-6.973,0.746-11.866,7.15-16.367c6.48-4.555,14.242-1.621,15.931-0.892l0.134-0.32l0.088-0.212
				c-1.793-0.771-9.778-3.764-16.484,0.95c-2.508,1.763-4.376,3.605-5.654,5.585c-0.491,0.76-0.895,1.539-1.214,2.343
				c-1.039,2.611-1.209,5.562-0.518,9.025C17.352,36.041,23.104,38.837,23.754,39.133z"/>
		</g>
		<path fill="#D1D3D4" d="M23.708,12.738c-6.404,4.501-8.703,9.431-7.15,16.367c1.657,7.405,6.985,9.729,8.755,10.316
			c-1.495-0.671-3.355-2.205-3.885-2.846c-1.976-2.395-2.991-4.271-3.208-5.025c-2.626-6.934,0.98-14.591,8.026-17.396
			c1.653-0.654,3.324-0.998,4.969-1.016c2.756-0.029,5.307,1.128,5.906,1.438s1.102,0.652,1.102,0.652l1.415-3.384
			C37.949,11.116,30.188,8.183,23.708,12.738z"/>
		<rect id="_x3C_切片_x3E_" x="1.438" y="1.617" fill="none" width="56" height="54"/>
	</g>
</g>
</svg>
