<?xml version="1.0" encoding="utf-8"?>
<!-- Generator: Adobe Illustrator 16.0.4, SVG Export Plug-In . SVG Version: 6.00 Build 0)  -->
<!DOCTYPE svg PUBLIC "-//W3C//DTD SVG 1.1//EN" "http://www.w3.org/Graphics/SVG/1.1/DTD/svg11.dtd">
<svg version="1.1" xmlns="http://www.w3.org/2000/svg" xmlns:xlink="http://www.w3.org/1999/xlink" x="0px" y="0px"
	 width="61.666px" height="61.666px" viewBox="0 0 61.666 61.666" enable-background="new 0 0 61.666 61.666" xml:space="preserve">
<g id="圖層_2" display="none">
	<rect display="inline" width="61.666" height="61.666"/>
</g>
<g id="圖層_1">
	<g>
		<g>
			<g>
				<g>
					<g>
						<path fill="#FFFFFF" d="M42.332,29.902c0.053,0.288,0.104,0.582,0.145,0.861c0.105,0.708,0.877,7.057-4.115,11.901
							c-2.533,2.46-5.105,3.92-7.863,4.464c-0.847,0.167-1.722,0.251-2.626,0.251c-2.355,0-4.918-0.57-7.759-1.72
							c-7.597-3.076-9.419-11.407-9.742-13.333l-8.556,1.535l0.09,0.313c0.025,0.095,0.701,2.386,2.638,5.313
							c2.071,3.134,5.894,7.401,12.337,9.928c5.352,2.101,11.098,1.989,16.175-0.315c4.039-1.832,7.17-4.938,8.381-8.305
							c0.76-2.11,1.225-3.971,1.393-6.896C42.92,32.307,42.645,30.937,42.332,29.902z M32.812,48.566
							c-4.931,2.24-10.515,2.347-15.718,0.306c-6.3-2.473-10.036-6.643-12.062-9.707c-1.479-2.236-2.214-4.122-2.466-4.843
							l2.638-0.475l1.586,0.215c0,0,2.241,9.462,12.414,13.965c8.72,3.858,16.581,0.095,20.551-5.191
							C38.244,45.163,35.785,47.222,32.812,48.566z"/>
					</g>
				</g>
				<path fill="#D1D3D4" d="M20.33,45.124c7.256,2.938,12.643,2.195,17.629-2.873c5.322-5.41,4.383-11.146,3.916-12.952
					c0.246,1.619-0.031,4.014-0.283,4.808c-0.939,2.957-1.965,4.828-2.482,5.421c-4.398,5.967-12.789,7.092-18.968,2.696
					c-1.447-1.033-2.642-2.252-3.549-3.623c-1.519-2.299-1.931-5.069-1.996-5.741s-0.048-1.281-0.048-1.281l-3.609,0.647
					C11.242,34.041,12.989,42.151,20.33,45.124z"/>
				<g>
					<g>
						<path fill="#FFFFFF" d="M20.344,23.677c0.16-0.246,0.325-0.493,0.487-0.725c0.411-0.586,4.22-5.724,11.176-5.805
							c3.531-0.041,6.402,0.67,8.777,2.172c0.73,0.462,1.422,1.003,2.078,1.625c1.709,1.621,3.178,3.798,4.447,6.587
							c3.395,7.46-1.016,14.758-2.105,16.378l7.266,4.773l0.15-0.289c0.045-0.087,1.131-2.214,1.742-5.671
							c0.652-3.699,0.814-9.425-2.121-15.692c-2.439-5.207-6.686-9.08-11.955-10.901c-4.191-1.45-8.6-1.352-11.796,0.259
							c-2.003,1.009-3.621,2.039-5.756,4.046C21.572,21.527,20.83,22.711,20.344,23.677z M40.094,16.684
							c5.121,1.768,9.246,5.533,11.617,10.595c2.869,6.128,2.711,11.726,2.074,15.343c-0.467,2.64-1.232,4.514-1.545,5.21L50,46.36
							l-1.004-1.247c0,0,4.885-8.407,0.602-18.675c-3.672-8.801-11.967-11.478-18.484-10.375
							C33.811,15.417,37.012,15.613,40.094,16.684z"/>
					</g>
				</g>
				<path fill="#D1D3D4" d="M46.783,27.771c-3.242-7.125-7.664-10.293-14.77-10.046c-7.583,0.264-10.849,5.072-11.752,6.703
					c0.935-1.345,2.785-2.891,3.514-3.293c2.716-1.5,4.747-2.152,5.53-2.227c7.298-1.303,14.16,3.654,15.621,11.096
					c0.338,1.746,0.367,3.452,0.082,5.071c-0.48,2.714-2.088,5.007-2.502,5.54c-0.416,0.532-0.848,0.963-0.848,0.963l3.064,2.014
					C45.752,42.066,50.064,34.979,46.783,27.771z"/>
				<g>
					<g>
						<path fill="#FFFFFF" d="M24.823,39.381c-0.271-0.111-0.545-0.229-0.802-0.346c-0.651-0.296-6.403-3.093-7.766-9.915
							c-0.691-3.463-0.521-6.415,0.518-9.026c0.319-0.804,0.723-1.583,1.214-2.343c1.278-1.979,3.146-3.822,5.654-5.585
							c6.705-4.713,14.691-1.723,16.484-0.95l3.354-8.02l-0.312-0.096c-0.094-0.028-2.385-0.704-5.895-0.666
							c-3.756,0.039-9.414,0.936-15.033,4.977c-4.667,3.356-7.691,8.244-8.511,13.761c-0.652,4.386,0.258,8.701,2.43,11.546
							c1.36,1.782,2.671,3.183,5.037,4.911C22.484,38.57,23.784,39.082,24.823,39.381z M14.31,21.258
							c0.793-5.357,3.733-10.106,8.271-13.371c5.494-3.949,11.025-4.826,14.697-4.865c2.682-0.028,4.664,0.378,5.406,0.557
							l-1.031,2.473l-1.041,1.217c0,0-9.164-3.251-18.466,2.852c-7.973,5.231-9.074,13.877-6.789,20.081
							C14.222,27.667,13.826,24.484,14.31,21.258z"/>
					</g>
				</g>
				<g>
					<path fill="#D1D3D4" d="M42.332,29.902c-0.271-0.9-0.572-1.548-0.682-1.855c0.033,0.098,0.072,0.253,0.109,0.453
						c0.121,0.648,0.236,1.769,0.209,2.949c0.135,1.782,0.094,6.818-4.01,10.802c-5.102,4.951-10.374,5.811-17.629,2.873
						c-7.341-2.973-9.088-11.083-9.391-12.898l-0.342,0.062l-0.227,0.04c0.323,1.926,2.146,10.257,9.742,13.333
						c2.841,1.149,5.403,1.72,7.759,1.72c0.904,0,1.779-0.084,2.626-0.251c2.758-0.544,5.33-2.004,7.863-4.464
						c4.992-4.845,4.221-11.193,4.115-11.901C42.436,30.484,42.385,30.19,42.332,29.902z"/>
					<path fill="#D1D3D4" d="M47.311,27.531c-1.27-2.789-2.738-4.966-4.447-6.587c-0.656-0.622-1.348-1.163-2.078-1.625
						c-2.375-1.502-5.246-2.213-8.777-2.172c-6.957,0.081-10.765,5.219-11.176,5.805c-0.162,0.231-0.327,0.479-0.487,0.725
						c-0.422,0.841-0.649,1.517-0.782,1.816c0.043-0.095,0.122-0.234,0.233-0.405c0.357-0.555,1.045-1.446,1.877-2.284
						c1.129-1.385,4.623-5.012,10.341-5.078c7.109-0.083,11.527,2.921,14.77,10.046c3.281,7.208-1.031,14.295-2.061,15.821
						l0.291,0.189l0.191,0.127C46.295,42.289,50.705,34.991,47.311,27.531z"/>
					<path fill="#D1D3D4" d="M24.021,39.035c0.257,0.117,0.53,0.234,0.802,0.346c0.904,0.26,1.609,0.359,1.929,0.434
						c-0.101-0.024-0.253-0.077-0.44-0.153c-0.61-0.25-1.614-0.763-2.591-1.425c-1.57-0.854-5.777-3.62-6.897-9.229
						c-1.393-6.972,0.746-11.866,7.15-16.367c6.48-4.555,14.242-1.622,15.931-0.892l0.133-0.32l0.088-0.212
						c-1.793-0.772-9.779-3.763-16.484,0.95c-2.508,1.763-4.376,3.606-5.654,5.585c-0.491,0.76-0.895,1.539-1.214,2.343
						c-1.039,2.611-1.209,5.563-0.518,9.026C17.618,35.942,23.37,38.739,24.021,39.035z"/>
				</g>
				<path fill="#D1D3D4" d="M23.973,12.64c-6.404,4.501-8.703,9.43-7.15,16.367c1.657,7.406,6.985,9.729,8.755,10.317
					c-1.494-0.672-3.354-2.205-3.884-2.847c-1.976-2.394-2.991-4.27-3.208-5.025c-2.626-6.934,0.98-14.591,8.026-17.397
					c1.653-0.655,3.324-0.998,4.968-1.016c2.756-0.029,5.307,1.128,5.906,1.438c0.6,0.31,1.102,0.653,1.102,0.653l1.416-3.383
					C38.215,11.018,30.453,8.085,23.973,12.64z"/>
			</g>
		</g>
	</g>
</g>
<g id="圖層_3" display="none">
	<rect display="inline" fill="none" stroke="#FFFFFF" stroke-width="0.25" stroke-miterlimit="10" width="61.666" height="61.666"/>
</g>
</svg>
