<?xml version="1.0" encoding="iso-8859-1"?>
<!-- Generator: Adobe Illustrator 16.0.0, SVG Export Plug-In . SVG Version: 6.00 Build 0)  -->
<!DOCTYPE svg PUBLIC "-//W3C//DTD SVG 1.1//EN" "http://www.w3.org/Graphics/SVG/1.1/DTD/svg11.dtd">
<svg version="1.1" id="Layer_1" xmlns="http://www.w3.org/2000/svg" xmlns:xlink="http://www.w3.org/1999/xlink" x="0px" y="0px"
	 width="58.875px" height="57.234px" viewBox="0 0 58.875 57.234" style="enable-background:new 0 0 58.875 57.234;"
	 xml:space="preserve">
<path style="fill:#FFFFFF;" d="M37.496,29.143c0-2.203-1.012-4.19-2.479-5.614c-1.16,0.986-3.205,1.641-5.48,1.641
	c-2.271,0-4.295-0.653-5.457-1.641c-1.467,1.424-2.292,3.411-2.292,5.614c0,2.567,0.673,4.847,3.247,6.271v-4.74
	c0-0.868,1.172-1.567,2.041-1.567c0.868,0,1.822,0.699,1.822,1.567v6.136c0,0.095,0.367,0.146,0.887,0.146
	c0.497,0,0.83-0.049,0.83-0.138v-6.146c0-0.868,1.098-1.563,1.969-1.563c0.865,0,1.895,0.694,1.895,1.563v4.784
	C36.193,34.036,37.496,31.735,37.496,29.143z"/>
</svg>
