<?xml version="1.0" encoding="iso-8859-1"?>
<!-- Generator: Adobe Illustrator 16.0.0, SVG Export Plug-In . SVG Version: 6.00 Build 0)  -->
<!DOCTYPE svg PUBLIC "-//W3C//DTD SVG 1.1//EN" "http://www.w3.org/Graphics/SVG/1.1/DTD/svg11.dtd">
<svg version="1.1" id="Layer_1" xmlns="http://www.w3.org/2000/svg" xmlns:xlink="http://www.w3.org/1999/xlink" x="0px" y="0px"
	 width="36.071px" height="33.032px" viewBox="0 0 36.071 33.032" style="enable-background:new 0 0 36.071 33.032;"
	 xml:space="preserve">
<circle style="fill:#2BB673;" cx="2293.231" cy="-208.555" r="1.333"/>
<circle style="fill:#2BB673;" cx="2297.106" cy="-208.555" r="1.333"/>
<circle style="fill:#2BB673;" cx="2300.98" cy="-208.555" r="1.333"/>
<g>
	<path style="fill:#2BB673;" d="M2304.855-209.788c0.68,0,1.233,0.553,1.233,1.233s-0.554,1.233-1.233,1.233
		s-1.233-0.553-1.233-1.233S2304.175-209.788,2304.855-209.788 M2304.855-209.888c-0.736,0-1.333,0.597-1.333,1.333
		s0.597,1.333,1.333,1.333s1.333-0.597,1.333-1.333S2305.591-209.888,2304.855-209.888L2304.855-209.888z"/>
</g>
<g>
	<path style="fill:#2BB673;" d="M2308.73-209.788c0.68,0,1.233,0.553,1.233,1.233s-0.554,1.233-1.233,1.233
		s-1.233-0.553-1.233-1.233S2308.05-209.788,2308.73-209.788 M2308.73-209.888c-0.736,0-1.333,0.597-1.333,1.333
		s0.597,1.333,1.333,1.333s1.333-0.597,1.333-1.333S2309.466-209.888,2308.73-209.888L2308.73-209.888z"/>
</g>
<g>
	<g>
		<g>
			<path style="fill:#056C6E;" d="M27.606,18.715c0.036,0.197,0.07,0.397,0.098,0.588c0.071,0.482,0.597,4.808-2.804,8.108
				c-1.727,1.676-3.479,2.671-5.357,3.041c-0.578,0.114-1.173,0.171-1.789,0.171c-1.605,0-3.352-0.388-5.287-1.172
				c-5.176-2.096-6.417-7.771-6.638-9.083L0,21.414l0.062,0.214c0.017,0.064,0.478,1.625,1.797,3.62
				c1.411,2.135,4.015,5.042,8.405,6.764c3.646,1.431,7.562,1.355,11.021-0.215c2.752-1.248,4.885-3.364,5.71-5.658
				c0.518-1.438,0.834-2.705,0.949-4.698C28.007,20.353,27.819,19.42,27.606,18.715z M21.12,31.432
				c-3.36,1.526-7.165,1.599-10.709,0.208c-4.292-1.685-6.838-4.525-8.218-6.613c-1.007-1.524-1.508-2.809-1.68-3.3l1.797-0.323
				l1.081,0.146c0,0,1.526,6.447,8.458,9.515c5.941,2.629,11.296,0.065,14.002-3.536C24.82,29.113,23.146,30.516,21.12,31.432z"/>
		</g>
	</g>
	<path style="fill:#056C6E;" d="M25.131,19.324c0-1.501-0.689-2.855-1.688-3.825c-0.791,0.672-2.185,1.117-3.734,1.117
		c-1.547,0-2.926-0.445-3.718-1.117c-1,0.969-1.562,2.324-1.562,3.825c0,1.75,0.458,3.302,2.212,4.272v-3.23
		c0-0.591,0.798-1.067,1.39-1.067s1.241,0.476,1.241,1.067v4.181c0,0.064,0.25,0.1,0.604,0.1c0.339,0,0.565-0.033,0.565-0.094
		v-4.187c0-0.591,0.748-1.064,1.341-1.064c0.589,0,1.291,0.473,1.291,1.064v3.259C24.244,22.658,25.131,21.09,25.131,19.324z"/>
	<path style="fill:#62C1A0;" d="M12.615,29.086c4.944,2.001,8.615,1.496,12.011-1.958c3.626-3.686,2.986-7.594,2.668-8.825
		c0.168,1.104-0.022,2.735-0.193,3.275c-0.64,2.015-1.338,3.29-1.69,3.693c-2.997,4.066-8.713,4.833-12.924,1.838
		c-0.986-0.704-1.8-1.534-2.418-2.469c-1.035-1.566-1.315-3.454-1.36-3.912c-0.044-0.458-0.032-0.872-0.032-0.872l-2.459,0.441
		C6.423,21.535,7.613,27.061,12.615,29.086z"/>
	<g>
		<g>
			<path style="fill:#056C6E;" d="M12.625,14.474c0.108-0.167,0.221-0.336,0.332-0.493c0.28-0.399,2.875-3.9,7.614-3.955
				c2.406-0.028,4.362,0.457,5.98,1.479c0.498,0.315,0.969,0.683,1.416,1.107c1.165,1.104,2.165,2.587,3.03,4.488
				c2.313,5.083-0.69,10.055-1.433,11.159l4.949,3.252l0.103-0.197c0.031-0.06,0.771-1.509,1.187-3.864
				c0.445-2.52,0.556-6.421-1.445-10.691c-1.662-3.547-4.555-6.187-8.146-7.428c-2.855-0.987-5.859-0.92-8.037,0.177
				c-1.364,0.687-2.467,1.389-3.921,2.756C13.461,13.01,12.956,13.816,12.625,14.474z M26.081,9.709
				c3.488,1.204,6.299,3.77,7.915,7.218c1.955,4.175,1.848,7.989,1.412,10.453c-0.317,1.799-0.838,3.076-1.052,3.55l-1.526-1.002
				l-0.685-0.849c0,0,3.329-5.729,0.41-12.724c-2.502-5.996-8.152-7.819-12.594-7.069C21.8,8.847,23.98,8.98,26.081,9.709z"/>
		</g>
	</g>
	<path style="fill:#62C1A0;" d="M30.639,17.263c-2.209-4.854-5.222-7.012-10.063-6.844c-5.167,0.18-7.392,3.456-8.007,4.567
		c0.637-0.916,1.897-1.97,2.394-2.244c1.851-1.022,3.234-1.466,3.768-1.517c4.972-0.888,9.648,2.489,10.643,7.56
		c0.231,1.189,0.25,2.352,0.056,3.455c-0.327,1.849-1.421,3.411-1.705,3.774c-0.283,0.362-0.576,0.656-0.576,0.656l2.088,1.372
		C29.937,27.003,32.875,22.175,30.639,17.263z"/>
	<g>
		<g>
			<path style="fill:#056C6E;" d="M15.676,25.174c-0.185-0.077-0.371-0.156-0.546-0.237c-0.444-0.201-4.363-2.106-5.291-6.754
				c-0.471-2.359-0.355-4.371,0.353-6.15c0.217-0.547,0.493-1.079,0.827-1.596c0.871-1.348,2.145-2.604,3.853-3.805
				c4.568-3.211,10.01-1.174,11.231-0.647l2.284-5.464l-0.213-0.065c-0.063-0.02-1.625-0.479-4.016-0.454
				c-2.56,0.027-6.415,0.638-10.242,3.391c-3.181,2.287-5.241,5.617-5.799,9.375c-0.445,2.989,0.175,5.928,1.655,7.867
				c0.927,1.214,1.82,2.168,3.432,3.345C14.083,24.621,14.968,24.97,15.676,25.174z M8.513,12.826
				c0.541-3.651,2.544-6.886,5.635-9.11c3.744-2.69,7.512-3.288,10.014-3.315c1.827-0.02,3.178,0.258,3.684,0.379l-0.704,1.685
				l-0.708,0.829c0,0-6.244-2.215-12.582,1.943C8.42,8.801,7.669,14.691,9.226,18.918C8.453,17.192,8.184,15.024,8.513,12.826z"/>
		</g>
	</g>
	<g>
		<path style="fill:#62C1A0;" d="M27.606,18.715c-0.186-0.613-0.39-1.054-0.465-1.264c0.024,0.067,0.05,0.173,0.075,0.309
			c0.083,0.442,0.161,1.205,0.143,2.01c0.092,1.214,0.064,4.646-2.732,7.359c-3.476,3.374-7.067,3.959-12.011,1.958
			c-5.001-2.025-6.192-7.551-6.398-8.788L5.984,20.34l-0.155,0.027c0.221,1.312,1.462,6.988,6.638,9.083
			c1.935,0.784,3.681,1.172,5.287,1.172c0.616,0,1.211-0.057,1.789-0.171c1.878-0.37,3.631-1.365,5.357-3.041
			c3.401-3.301,2.875-7.626,2.804-8.108C27.676,19.112,27.642,18.912,27.606,18.715z"/>
		<path style="fill:#62C1A0;" d="M30.997,17.1c-0.865-1.9-1.865-3.383-3.03-4.488c-0.447-0.424-0.918-0.792-1.416-1.107
			c-1.618-1.023-3.574-1.507-5.98-1.479c-4.739,0.055-7.334,3.556-7.614,3.955c-0.111,0.157-0.224,0.326-0.332,0.493
			c-0.288,0.573-0.443,1.033-0.533,1.238c0.029-0.064,0.083-0.16,0.158-0.276c0.244-0.377,0.712-0.985,1.279-1.556
			c0.769-0.943,3.15-3.415,7.046-3.459c4.844-0.057,7.854,1.99,10.063,6.844c2.236,4.912-0.702,9.74-1.403,10.78l0.197,0.129
			l0.131,0.086C30.307,27.155,33.311,22.183,30.997,17.1z"/>
		<path style="fill:#62C1A0;" d="M15.13,24.937c0.175,0.081,0.361,0.16,0.546,0.237c0.616,0.176,1.097,0.244,1.314,0.295
			c-0.068-0.017-0.172-0.053-0.3-0.104c-0.416-0.17-1.1-0.52-1.765-0.971c-1.07-0.582-3.937-2.466-4.699-6.288
			c-0.949-4.75,0.508-8.085,4.872-11.151c4.415-3.104,9.703-1.105,10.854-0.607l0.091-0.218l0.061-0.145
			c-1.222-0.527-6.663-2.563-11.231,0.647c-1.708,1.201-2.982,2.457-3.853,3.805c-0.334,0.518-0.61,1.049-0.827,1.596
			c-0.708,1.779-0.824,3.791-0.353,6.15C10.767,22.831,14.686,24.736,15.13,24.937z"/>
	</g>
	<path style="fill:#62C1A0;" d="M15.098,6.954c-4.364,3.066-5.93,6.425-4.872,11.151c1.129,5.046,4.759,6.629,5.965,7.029
		c-1.018-0.457-2.286-1.502-2.646-1.939c-1.346-1.631-2.038-2.909-2.186-3.424c-1.789-4.724,0.668-9.941,5.469-11.854
		c1.126-0.446,2.265-0.679,3.386-0.691c1.877-0.02,3.615,0.769,4.023,0.98c0.409,0.211,0.751,0.445,0.751,0.445l0.964-2.305
		C24.8,5.849,19.513,3.851,15.098,6.954z"/>
</g>
</svg>
